<?xml version="1.0" encoding="utf-8"?>
<!-- Generator: Adobe Illustrator 22.1.0, SVG Export Plug-In . SVG Version: 6.00 Build 0)  -->
<svg version="1.1" id="Ebene_1" xmlns="http://www.w3.org/2000/svg" xmlns:xlink="http://www.w3.org/1999/xlink" x="0px" y="0px"
	 width="160px" height="164px" viewBox="0 0 160 164" enable-background="new 0 0 160 164" xml:space="preserve">
<g>
	<polygon fill="#005EA8" points="0,0 0,127 73,164 146,127 146,0 	"/>
	<polygon fill="#FFFFFF" points="5,52 5,123 73,158 141,123 141,52 	"/>
	<g>
		<path fill="#005EA8" d="M28.373,73.611h-3.454l-5.9-9.541v9.541h-3.286v-13.9h4.285l5.069,7.963v-7.963h3.286V73.611z"/>
		<path fill="#005EA8" d="M35.197,61.634H31.64v-2.548h3.557V61.634z M35.104,73.611h-3.37V63.128h3.37V73.611z"/>
		<path fill="#005EA8" d="M45.868,66.33H45.57c-0.143-0.049-0.373-0.087-0.689-0.112c-0.317-0.025-0.581-0.037-0.792-0.037
			c-0.478,0-0.9,0.031-1.267,0.093s-0.761,0.168-1.183,0.317v7.02h-3.37V63.127h3.37v1.541c0.739-0.635,1.381-1.056,1.928-1.265
			s1.049-0.313,1.509-0.313c0.118,0,0.252,0.003,0.401,0.01c0.15,0.006,0.28,0.016,0.391,0.028L45.868,66.33z"/>
		<path fill="#005EA8" d="M57.966,72.408c0,0.983-0.14,1.811-0.42,2.483c-0.28,0.672-0.672,1.198-1.177,1.577
			c-0.504,0.386-1.112,0.664-1.825,0.836c-0.713,0.171-1.517,0.257-2.413,0.257c-0.728,0-1.445-0.044-2.152-0.131
			c-0.707-0.087-1.318-0.193-1.835-0.317v-2.623h0.41c0.41,0.162,0.911,0.31,1.501,0.444c0.59,0.134,1.118,0.201,1.584,0.201
			c0.621,0,1.126-0.057,1.514-0.173c0.389-0.116,0.685-0.279,0.891-0.49c0.193-0.199,0.332-0.454,0.419-0.766
			c0.087-0.311,0.131-0.684,0.131-1.12v-0.196c-0.404,0.33-0.852,0.591-1.343,0.784c-0.492,0.193-1.038,0.289-1.641,0.289
			c-1.467,0-2.598-0.442-3.394-1.326s-1.193-2.228-1.193-4.032c0-0.865,0.121-1.612,0.364-2.24s0.584-1.177,1.026-1.643
			c0.41-0.436,0.915-0.775,1.515-1.017c0.6-0.242,1.213-0.364,1.842-0.364c0.566,0,1.08,0.067,1.543,0.201
			c0.463,0.134,0.884,0.319,1.263,0.555L54.7,63.13h3.267L57.966,72.408L57.966,72.408z M54.596,70.307v-4.752
			c-0.193-0.081-0.429-0.145-0.708-0.191c-0.28-0.046-0.531-0.07-0.754-0.07c-0.882,0-1.544,0.253-1.984,0.761
			s-0.661,1.215-0.661,2.124c0,1.009,0.188,1.711,0.564,2.109c0.375,0.398,0.933,0.597,1.672,0.597c0.335,0,0.664-0.053,0.987-0.159
			C54.034,70.621,54.328,70.481,54.596,70.307z"/>
		<path fill="#005EA8" d="M71.464,68.991h-7.692c0.049,0.821,0.362,1.45,0.938,1.886c0.576,0.436,1.424,0.653,2.544,0.653
			c0.71,0,1.397-0.127,2.063-0.382c0.666-0.255,1.192-0.529,1.577-0.821h0.374v2.698c-0.759,0.305-1.475,0.526-2.147,0.663
			c-0.672,0.137-1.416,0.206-2.231,0.206c-2.104,0-3.715-0.473-4.835-1.419s-1.68-2.293-1.68-4.042c0-1.73,0.531-3.101,1.592-4.112
			c1.061-1.011,2.516-1.517,4.365-1.517c1.706,0,2.987,0.431,3.846,1.293c0.859,0.862,1.288,2.102,1.288,3.72L71.464,68.991
			L71.464,68.991z M68.122,67.021c-0.018-0.703-0.193-1.232-0.523-1.587c-0.33-0.354-0.844-0.532-1.541-0.532
			c-0.647,0-1.179,0.168-1.596,0.504c-0.417,0.336-0.65,0.875-0.7,1.615L68.122,67.021z"/>
		<path fill="#005EA8" d="M84.365,73.611h-3.37v-5.199c0-0.423-0.022-0.845-0.065-1.265c-0.044-0.42-0.118-0.73-0.224-0.929
			c-0.124-0.23-0.307-0.398-0.546-0.504c-0.24-0.106-0.574-0.159-1.004-0.159c-0.305,0-0.614,0.049-0.929,0.15
			c-0.315,0.1-0.655,0.258-1.022,0.476v7.431h-3.37V63.129h3.37v1.157c0.597-0.467,1.17-0.824,1.72-1.074
			c0.55-0.249,1.161-0.374,1.832-0.374c1.131,0,2.015,0.33,2.653,0.989c0.637,0.66,0.955,1.646,0.955,2.959V73.611z"/>
		<path fill="#005EA8" d="M97.649,73.611h-3.37v-1.092c-0.578,0.473-1.118,0.821-1.622,1.045c-0.504,0.224-1.085,0.336-1.744,0.336
			c-1.275,0-2.293-0.492-3.058-1.475c-0.765-0.984-1.146-2.309-1.146-3.977c0-0.89,0.129-1.678,0.386-2.367
			c0.258-0.687,0.612-1.278,1.059-1.769c0.422-0.467,0.935-0.829,1.538-1.087c0.603-0.258,1.206-0.387,1.809-0.387
			c0.628,0,1.142,0.067,1.543,0.201c0.401,0.134,0.813,0.304,1.236,0.509v-4.463h3.37L97.649,73.611L97.649,73.611z M94.28,70.726
			v-5.152c-0.236-0.1-0.484-0.172-0.746-0.216c-0.26-0.044-0.499-0.065-0.716-0.065c-0.882,0-1.544,0.276-1.984,0.828
			s-0.661,1.316-0.661,2.295c0,1.028,0.178,1.776,0.531,2.24c0.353,0.464,0.922,0.696,1.705,0.696c0.304,0,0.627-0.057,0.969-0.173
			C93.719,71.064,94.019,70.913,94.28,70.726z"/>
		<path fill="#005EA8" d="M117.543,63.128l-3.249,10.483h-3.567l-2.137-7.067l-2.109,7.067h-3.603l-3.221-10.483h3.526l1.8,7.225
			l2.237-7.225h2.978l2.127,7.225l1.77-7.225L117.543,63.128z"/>
		<path fill="#005EA8" d="M130.267,68.374c0,1.724-0.503,3.082-1.508,4.075s-2.416,1.489-4.233,1.489s-3.229-0.496-4.233-1.489
			c-1.005-0.993-1.508-2.351-1.508-4.075c0-1.737,0.506-3.1,1.517-4.089c1.011-0.989,2.419-1.484,4.224-1.484
			c1.83,0,3.244,0.498,4.243,1.494C129.767,65.291,130.267,66.651,130.267,68.374z M126.131,70.923
			c0.217-0.268,0.382-0.589,0.49-0.966c0.108-0.377,0.163-0.898,0.163-1.564c0-0.616-0.056-1.133-0.168-1.549
			c-0.112-0.417-0.268-0.75-0.467-0.999c-0.199-0.255-0.439-0.436-0.719-0.542c-0.28-0.106-0.582-0.159-0.906-0.159
			s-0.612,0.044-0.864,0.131s-0.493,0.261-0.723,0.523c-0.206,0.243-0.369,0.576-0.49,0.999c-0.121,0.423-0.182,0.955-0.182,1.596
			c0,0.573,0.053,1.069,0.159,1.489c0.106,0.42,0.261,0.758,0.467,1.012c0.199,0.243,0.437,0.42,0.714,0.532
			c0.276,0.112,0.593,0.168,0.947,0.168c0.305,0,0.596-0.051,0.873-0.154S125.939,71.166,126.131,70.923z"/>
		<path fill="#005EA8" d="M34.142,98.31c-0.622,0.243-1.447,0.484-2.473,0.723c-1.027,0.24-2.05,0.359-3.071,0.359
			c-2.365,0-4.216-0.643-5.555-1.928c-1.338-1.285-2.007-3.061-2.007-5.326c0-2.16,0.676-3.9,2.026-5.223
			c1.35-1.323,3.233-1.984,5.648-1.984c0.915,0,1.786,0.083,2.614,0.248c0.828,0.165,1.749,0.493,2.763,0.985v3.258h-0.401
			c-0.174-0.131-0.429-0.315-0.766-0.555s-0.66-0.444-0.971-0.612c-0.361-0.199-0.782-0.37-1.265-0.514s-0.994-0.215-1.536-0.215
			c-0.635,0-1.211,0.093-1.727,0.28s-0.98,0.473-1.391,0.859c-0.392,0.374-0.702,0.848-0.929,1.424
			c-0.227,0.576-0.341,1.24-0.341,1.993c0,1.537,0.408,2.713,1.223,3.529c0.815,0.816,2.019,1.223,3.613,1.223
			c0.137,0,0.288-0.003,0.452-0.01c0.165-0.006,0.315-0.016,0.452-0.028v-2.726h-2.772v-2.623h6.413L34.142,98.31L34.142,98.31z"/>
		<path fill="#005EA8" d="M47.613,99.104h-3.37v-1.157c-0.621,0.473-1.19,0.832-1.706,1.079c-0.516,0.246-1.131,0.369-1.846,0.369
			c-1.156,0-2.046-0.333-2.671-0.999c-0.625-0.666-0.937-1.649-0.937-2.95v-6.824h3.37v5.199c0,0.529,0.017,0.969,0.051,1.321
			c0.034,0.351,0.114,0.643,0.238,0.873c0.118,0.23,0.297,0.398,0.537,0.504c0.24,0.106,0.574,0.159,1.004,0.159
			c0.286,0,0.604-0.053,0.952-0.159s0.684-0.261,1.009-0.467v-7.431h3.37L47.613,99.104L47.613,99.104z M41.227,87.127h-2.772
			v-2.548h2.772V87.127z M46.24,87.127h-2.772v-2.548h2.772V87.127z"/>
		<path fill="#005EA8" d="M61.317,99.104h-3.37v-5.199c0-0.423-0.022-0.845-0.065-1.265s-0.118-0.73-0.224-0.929
			c-0.124-0.23-0.307-0.398-0.546-0.504c-0.24-0.106-0.574-0.159-1.004-0.159c-0.305,0-0.614,0.049-0.929,0.15
			c-0.315,0.1-0.655,0.258-1.022,0.476v7.431h-3.37V88.621h3.37v1.157c0.597-0.467,1.17-0.824,1.72-1.074s1.161-0.374,1.832-0.374
			c1.131,0,2.015,0.33,2.653,0.989c0.637,0.66,0.956,1.646,0.956,2.959L61.317,99.104L61.317,99.104z"/>
		<path fill="#005EA8" d="M73.518,95.78c0,1.083-0.485,1.956-1.456,2.618c-0.971,0.663-2.3,0.994-3.986,0.994
			c-0.934,0-1.78-0.087-2.54-0.261c-0.76-0.174-1.369-0.367-1.83-0.579v-2.763h0.308c0.168,0.118,0.362,0.248,0.583,0.387
			s0.534,0.291,0.938,0.452c0.349,0.143,0.744,0.266,1.185,0.369s0.915,0.154,1.419,0.154c0.66,0,1.148-0.073,1.466-0.219
			c0.318-0.146,0.476-0.362,0.476-0.648c0-0.255-0.093-0.441-0.28-0.555c-0.187-0.115-0.542-0.225-1.064-0.331
			c-0.249-0.056-0.586-0.116-1.012-0.182c-0.426-0.066-0.813-0.145-1.162-0.238c-0.952-0.249-1.659-0.636-2.119-1.162
			c-0.46-0.526-0.691-1.181-0.691-1.965c0-1.009,0.478-1.847,1.433-2.516c0.955-0.669,2.261-1.004,3.916-1.004
			c0.784,0,1.536,0.08,2.254,0.238c0.719,0.159,1.28,0.328,1.685,0.509v2.651h-0.289c-0.498-0.343-1.066-0.621-1.704-0.836
			c-0.638-0.215-1.283-0.322-1.937-0.322c-0.542,0-0.997,0.075-1.368,0.224c-0.37,0.149-0.555,0.361-0.555,0.635
			c0,0.249,0.084,0.439,0.252,0.57s0.563,0.261,1.185,0.392c0.343,0.069,0.711,0.135,1.106,0.201s0.792,0.148,1.19,0.248
			c0.883,0.23,1.537,0.593,1.96,1.087C73.305,94.421,73.518,95.039,73.518,95.78z"/>
		<path fill="#005EA8" d="M82.452,99.011c-0.361,0.093-0.744,0.166-1.148,0.218s-0.899,0.08-1.484,0.08
			c-1.307,0-2.279-0.264-2.917-0.793c-0.638-0.529-0.957-1.435-0.957-2.716v-4.901h-1.381v-2.278h1.381v-2.997h3.37v2.997h3.137
			v2.278h-3.137v3.721c0,0.368,0.003,0.689,0.01,0.963c0.006,0.275,0.056,0.52,0.15,0.739c0.086,0.217,0.241,0.39,0.46,0.519
			c0.22,0.127,0.542,0.191,0.963,0.191c0.174,0,0.401-0.037,0.683-0.112c0.282-0.075,0.48-0.143,0.591-0.206h0.28L82.452,99.011
			L82.452,99.011z"/>
		<path fill="#005EA8" d="M87.922,87.127h-3.557v-2.548h3.557L87.922,87.127z M87.829,99.104h-3.37V88.62h3.37V99.104z"/>
		<path fill="#005EA8" d="M101.187,97.899c0,0.983-0.14,1.811-0.42,2.483c-0.28,0.672-0.672,1.198-1.177,1.577
			c-0.504,0.386-1.112,0.664-1.825,0.836c-0.713,0.171-1.517,0.257-2.413,0.257c-0.728,0-1.445-0.044-2.152-0.131
			s-1.318-0.193-1.835-0.317v-2.623h0.41c0.411,0.162,0.911,0.31,1.502,0.444c0.589,0.134,1.118,0.201,1.584,0.201
			c0.621,0,1.126-0.057,1.514-0.173c0.388-0.116,0.685-0.279,0.89-0.49c0.193-0.199,0.333-0.454,0.419-0.766
			c0.087-0.311,0.131-0.684,0.131-1.12v-0.196c-0.404,0.33-0.852,0.591-1.343,0.784c-0.492,0.193-1.038,0.289-1.641,0.289
			c-1.467,0-2.599-0.442-3.394-1.326c-0.795-0.883-1.193-2.228-1.193-4.032c0-0.865,0.121-1.612,0.364-2.24
			c0.242-0.629,0.584-1.177,1.025-1.643c0.41-0.436,0.915-0.775,1.515-1.017s1.213-0.364,1.842-0.364
			c0.566,0,1.079,0.067,1.543,0.201c0.464,0.134,0.884,0.319,1.263,0.555l0.122-0.467h3.267L101.187,97.899L101.187,97.899z
			 M97.818,95.798v-4.752c-0.192-0.081-0.429-0.145-0.708-0.191c-0.28-0.046-0.531-0.07-0.754-0.07
			c-0.882,0-1.544,0.253-1.984,0.761c-0.441,0.507-0.661,1.215-0.661,2.124c0,1.009,0.188,1.711,0.564,2.109
			c0.375,0.398,0.933,0.597,1.672,0.597c0.335,0,0.664-0.053,0.987-0.159C97.256,96.112,97.551,95.973,97.818,95.798z"/>
		<path fill="#005EA8" d="M114.687,94.482h-7.692c0.049,0.821,0.362,1.45,0.938,1.886c0.576,0.436,1.424,0.653,2.544,0.653
			c0.71,0,1.397-0.127,2.063-0.382c0.666-0.255,1.192-0.529,1.577-0.821h0.374v2.698c-0.759,0.305-1.475,0.526-2.147,0.663
			c-0.672,0.137-1.416,0.206-2.231,0.206c-2.104,0-3.715-0.473-4.835-1.419c-1.12-0.946-1.68-2.293-1.68-4.042
			c0-1.73,0.531-3.101,1.592-4.112c1.061-1.011,2.516-1.517,4.365-1.517c1.706,0,2.987,0.431,3.846,1.293
			c0.859,0.862,1.288,2.102,1.288,3.72L114.687,94.482L114.687,94.482z M111.344,92.512c-0.018-0.703-0.193-1.232-0.523-1.587
			c-0.33-0.354-0.844-0.532-1.541-0.532c-0.647,0-1.179,0.168-1.596,0.504c-0.417,0.336-0.65,0.875-0.7,1.615
			C106.984,92.512,111.344,92.512,111.344,92.512z"/>
		<path fill="#005EA8" d="M124.656,91.822h-0.298c-0.143-0.049-0.373-0.087-0.689-0.112s-0.581-0.037-0.792-0.037
			c-0.478,0-0.9,0.031-1.267,0.093c-0.366,0.062-0.761,0.168-1.183,0.317v7.02h-3.37V88.619h3.37v1.541
			c0.739-0.635,1.381-1.056,1.929-1.265c0.546-0.209,1.049-0.313,1.509-0.313c0.118,0,0.252,0.003,0.401,0.01
			c0.15,0.006,0.28,0.016,0.391,0.028L124.656,91.822L124.656,91.822z"/>
	</g>
	<g>
		<path fill="#005EA8" d="M40.924,123.005c-0.622,0.243-1.447,0.484-2.473,0.723c-1.027,0.24-2.05,0.359-3.071,0.359
			c-2.365,0-4.216-0.643-5.555-1.928c-1.338-1.285-2.007-3.061-2.007-5.326c0-2.16,0.676-3.9,2.026-5.223s3.233-1.984,5.648-1.984
			c0.915,0,1.786,0.083,2.614,0.248c0.828,0.165,1.749,0.493,2.763,0.985v3.258h-0.401c-0.174-0.131-0.429-0.315-0.766-0.555
			c-0.336-0.24-0.66-0.444-0.971-0.612c-0.361-0.199-0.782-0.37-1.265-0.514s-0.994-0.215-1.536-0.215
			c-0.635,0-1.211,0.093-1.727,0.28s-0.98,0.473-1.391,0.859c-0.392,0.374-0.702,0.848-0.929,1.424
			c-0.227,0.576-0.341,1.24-0.341,1.993c0,1.537,0.408,2.713,1.223,3.529c0.815,0.816,2.019,1.223,3.613,1.223
			c0.137,0,0.288-0.003,0.452-0.01c0.165-0.006,0.315-0.016,0.452-0.028v-2.726H34.51v-2.623h6.413L40.924,123.005L40.924,123.005z"
			/>
		<path fill="#005EA8" d="M50.297,122.687c-0.181,0.137-0.405,0.302-0.672,0.495c-0.268,0.193-0.519,0.346-0.756,0.457
			c-0.33,0.15-0.672,0.26-1.027,0.331c-0.354,0.072-0.744,0.108-1.167,0.108c-0.996,0-1.83-0.308-2.502-0.924
			c-0.672-0.616-1.009-1.404-1.009-2.362c0-0.766,0.171-1.391,0.514-1.876c0.343-0.485,0.828-0.868,1.456-1.148
			c0.622-0.28,1.394-0.48,2.315-0.597c0.921-0.118,1.876-0.206,2.866-0.261v-0.056c0-0.579-0.237-0.979-0.71-1.2
			c-0.473-0.221-1.17-0.331-2.091-0.331c-0.554,0-1.146,0.098-1.774,0.294s-1.079,0.347-1.353,0.452h-0.307v-2.53
			c0.354-0.093,0.932-0.204,1.732-0.331c0.8-0.127,1.601-0.191,2.404-0.191c1.91,0,3.291,0.294,4.14,0.882s1.275,1.51,1.275,2.768
			v7.132h-3.333V122.687z M50.297,121.057v-2.177c-0.454,0.037-0.946,0.088-1.475,0.153c-0.529,0.065-0.93,0.142-1.204,0.228
			c-0.336,0.106-0.593,0.26-0.77,0.461c-0.178,0.202-0.266,0.467-0.266,0.795c0,0.217,0.018,0.394,0.056,0.531
			c0.037,0.137,0.131,0.267,0.28,0.391c0.143,0.123,0.315,0.216,0.514,0.274c0.199,0.059,0.511,0.088,0.934,0.088
			c0.336,0,0.677-0.069,1.022-0.205C49.732,121.459,50.035,121.28,50.297,121.057z"/>
		<path fill="#005EA8" d="M64.318,116.517H64.02c-0.143-0.049-0.373-0.087-0.689-0.112c-0.317-0.025-0.581-0.037-0.792-0.037
			c-0.478,0-0.9,0.031-1.267,0.093c-0.366,0.062-0.761,0.168-1.183,0.317v7.02h-3.37v-10.483h3.37v1.541
			c0.739-0.635,1.381-1.056,1.928-1.265c0.546-0.209,1.049-0.313,1.509-0.313c0.118,0,0.252,0.003,0.401,0.01
			c0.15,0.006,0.28,0.016,0.391,0.028L64.318,116.517z"/>
		<path fill="#005EA8" d="M72.571,122.687c-0.181,0.137-0.405,0.302-0.672,0.495c-0.268,0.193-0.519,0.346-0.756,0.457
			c-0.33,0.15-0.672,0.26-1.027,0.331c-0.354,0.072-0.744,0.108-1.167,0.108c-0.996,0-1.83-0.308-2.502-0.924
			s-1.009-1.404-1.009-2.362c0-0.766,0.171-1.391,0.514-1.876c0.343-0.485,0.828-0.868,1.456-1.148
			c0.622-0.28,1.394-0.48,2.315-0.597c0.921-0.118,1.876-0.206,2.866-0.261v-0.056c0-0.579-0.237-0.979-0.71-1.2
			c-0.473-0.221-1.17-0.331-2.091-0.331c-0.554,0-1.146,0.098-1.774,0.294s-1.079,0.347-1.353,0.452h-0.308v-2.53
			c0.354-0.093,0.932-0.204,1.732-0.331c0.8-0.127,1.601-0.191,2.404-0.191c1.91,0,3.291,0.294,4.14,0.882
			c0.849,0.588,1.275,1.51,1.275,2.768v7.132H72.57L72.571,122.687L72.571,122.687z M72.571,121.057v-2.177
			c-0.454,0.037-0.946,0.088-1.475,0.153c-0.529,0.065-0.93,0.142-1.204,0.228c-0.336,0.106-0.593,0.26-0.77,0.461
			c-0.178,0.202-0.266,0.467-0.266,0.795c0,0.217,0.018,0.394,0.056,0.531c0.037,0.137,0.131,0.267,0.28,0.391
			c0.143,0.123,0.315,0.216,0.514,0.274c0.199,0.059,0.511,0.088,0.934,0.088c0.336,0,0.677-0.069,1.022-0.205
			C72.006,121.459,72.309,121.28,72.571,121.057z"/>
		<path fill="#005EA8" d="M89.523,123.798h-3.37v-5.199c0-0.423-0.022-0.845-0.065-1.265c-0.044-0.42-0.118-0.73-0.224-0.929
			c-0.124-0.23-0.307-0.398-0.546-0.504c-0.24-0.106-0.574-0.159-1.004-0.159c-0.305,0-0.614,0.049-0.929,0.15
			s-0.655,0.258-1.022,0.476v7.431h-3.37v-10.483h3.37v1.157c0.597-0.467,1.17-0.824,1.72-1.074c0.55-0.249,1.161-0.374,1.832-0.374
			c1.131,0,2.015,0.33,2.653,0.989c0.637,0.66,0.955,1.646,0.955,2.959V123.798z"/>
		<path fill="#005EA8" d="M99.315,123.706c-0.361,0.093-0.744,0.166-1.148,0.218c-0.404,0.053-0.899,0.08-1.484,0.08
			c-1.307,0-2.279-0.264-2.917-0.793c-0.638-0.529-0.957-1.435-0.957-2.716v-4.901h-1.381v-2.277h1.381v-2.997h3.37v2.997h3.137
			v2.277h-3.137v3.721c0,0.368,0.003,0.689,0.01,0.963c0.006,0.275,0.056,0.52,0.15,0.739c0.086,0.217,0.241,0.39,0.46,0.519
			c0.22,0.127,0.542,0.191,0.963,0.191c0.174,0,0.401-0.037,0.683-0.112c0.282-0.075,0.48-0.143,0.591-0.206h0.28L99.315,123.706
			L99.315,123.706z"/>
		<path fill="#005EA8" d="M104.786,111.821h-3.557v-2.548h3.557V111.821z M104.692,123.798h-3.37v-10.483h3.37V123.798z"/>
		<path fill="#005EA8" d="M118.182,119.177h-7.692c0.049,0.821,0.362,1.45,0.938,1.886c0.576,0.436,1.424,0.653,2.544,0.653
			c0.71,0,1.397-0.127,2.063-0.382c0.666-0.255,1.192-0.529,1.577-0.821h0.374v2.698c-0.759,0.305-1.475,0.526-2.147,0.663
			c-0.672,0.137-1.416,0.206-2.231,0.206c-2.104,0-3.715-0.473-4.835-1.419c-1.12-0.946-1.68-2.293-1.68-4.042
			c0-1.73,0.531-3.101,1.592-4.112c1.061-1.011,2.516-1.517,4.365-1.517c1.706,0,2.987,0.431,3.846,1.293
			c0.859,0.862,1.288,2.102,1.288,3.72L118.182,119.177L118.182,119.177z M114.84,117.207c-0.018-0.703-0.193-1.232-0.523-1.587
			c-0.33-0.354-0.844-0.532-1.541-0.532c-0.647,0-1.179,0.168-1.596,0.504c-0.417,0.336-0.65,0.875-0.7,1.615L114.84,117.207
			L114.84,117.207z"/>
	</g>
	<g>
		<g>
			<path fill="#FFFFFF" d="M16.933,31.016h-0.007c-2.099,0-4.268-0.051-5.697-0.661c-0.739-0.314-1.252-0.735-1.616-1.326
				c-0.399-0.651-0.593-1.49-0.593-2.567c0-0.821,0.117-1.785,0.348-2.87c0.053-0.246,1.291-6.03,1.374-6.337
				c0.327-1.205,0.74-2.197,1.264-3.03c0.905-1.434,2.109-2.358,3.789-2.908c1.4-0.456,3.18-0.659,5.773-0.659h0.022
				c1.361,0,2.481,0.096,3.422,0.294c1.11,0.233,1.957,0.613,2.519,1.132c0.419,0.386,0.691,0.86,0.807,1.405
				c0.059,0.275,0.088,0.582,0.088,0.915c0,0.77-0.157,1.573-0.283,2.218c-0.018,0.095-0.037,0.186-0.053,0.275l-0.005,0.026h-5.015
				l0.004-0.036c0,0,0.016-0.151,0.022-0.219c0-0.003,0.022-0.207,0.022-0.499c0-0.435-0.204-0.777-0.623-1.044
				c-0.331-0.188-0.754-0.253-1.16-0.302c-0.433-0.052-0.917-0.059-1.377-0.059c-0.844,0.001-1.481,0.067-2.004,0.21
				c-0.418,0.114-0.765,0.279-1.059,0.503c-0.416,0.315-0.738,0.769-0.988,1.385c-0.233,0.574-0.401,1.257-0.582,2.105l-0.687,3.234
				c-0.221,1.042-0.377,1.832-0.378,2.511c0,0.392,0.053,0.703,0.168,0.977c0.178,0.437,0.558,0.778,1.071,0.96
				c0.494,0.179,1.118,0.26,2.027,0.261c0.607,0,1.104-0.011,1.556-0.066c0.785-0.094,1.346-0.33,1.768-0.74
				c0.457-0.445,0.766-1.103,0.972-2.07l0.07-0.33h4.96l-0.002,0.033c-0.002,0.039-0.28,1.341-0.425,1.862
				c-0.151,0.543-0.315,1.007-0.503,1.417c-0.482,1.051-1.153,1.859-2.114,2.544c-0.929,0.65-1.918,1.051-3.114,1.26
				c-1.029,0.18-2.08,0.194-3.249,0.194H17.43C17.405,31.016,16.992,31.016,16.933,31.016z"/>
		</g>
		<g>
			<path fill="#FFFFFF" d="M72.496,31.016h-0.007c-2.099,0-4.268-0.051-5.697-0.661c-0.739-0.314-1.252-0.735-1.616-1.326
				c-0.399-0.651-0.593-1.49-0.593-2.567c0-0.821,0.117-1.785,0.348-2.87c0.053-0.246,1.291-6.03,1.374-6.337
				c0.327-1.205,0.74-2.197,1.264-3.03c0.905-1.434,2.109-2.358,3.789-2.908c1.4-0.456,3.18-0.659,5.773-0.659h0.022
				c1.361,0,2.481,0.096,3.422,0.294c1.11,0.233,1.957,0.613,2.519,1.132c0.419,0.386,0.691,0.86,0.807,1.405
				c0.059,0.274,0.088,0.582,0.088,0.915c0,0.77-0.157,1.573-0.283,2.219c-0.018,0.094-0.037,0.186-0.053,0.274l-0.005,0.026h-5.015
				l0.004-0.036c0,0,0.016-0.151,0.022-0.219c0-0.003,0.022-0.207,0.022-0.499c0-0.435-0.204-0.777-0.623-1.044
				c-0.331-0.188-0.754-0.253-1.16-0.302c-0.433-0.052-0.917-0.059-1.377-0.059c-0.844,0.001-1.481,0.067-2.004,0.21
				c-0.418,0.114-0.765,0.279-1.059,0.503c-0.415,0.315-0.738,0.769-0.988,1.385c-0.233,0.574-0.401,1.257-0.582,2.105L70.2,22.202
				c-0.221,1.042-0.377,1.832-0.378,2.511c0,0.392,0.054,0.703,0.168,0.977c0.178,0.437,0.558,0.778,1.071,0.96
				c0.494,0.179,1.118,0.26,2.027,0.261c0.607,0,1.104-0.011,1.556-0.066c0.785-0.094,1.346-0.33,1.768-0.74
				c0.457-0.445,0.766-1.103,0.972-2.07l0.07-0.33h4.96l-0.002,0.034c-0.002,0.039-0.28,1.341-0.425,1.862
				c-0.151,0.543-0.315,1.007-0.503,1.416c-0.482,1.051-1.153,1.859-2.114,2.544c-0.929,0.65-1.918,1.051-3.114,1.26
				c-1.029,0.18-2.08,0.194-3.249,0.194h-0.014C72.969,31.016,72.556,31.016,72.496,31.016z"/>
		</g>
		<g>
			<path fill="#FFFFFF" d="M61.735,30.849H47.307l0.008-0.039l4.035-18.986c0.07-0.35,0.202-0.589,0.412-0.754
				c0.215-0.166,0.511-0.248,0.906-0.249h12.173c0.3,0.001,0.519,0.069,0.648,0.202c0.098,0.1,0.151,0.249,0.151,0.429v0.016
				c-0.001,0.073-0.01,0.148-0.028,0.224l-0.629,2.963h-9.425l-0.817,3.926h8.845l-0.805,3.702h-8.845l-1.008,4.739h9.618
				L61.735,30.849z"/>
		</g>
		<g>
			<path fill="#FFFFFF" d="M87.606,30.85h-4.81l0.008-0.039l4.022-18.92c0.096-0.411,0.251-0.694,0.473-0.865
				c0.178-0.135,0.405-0.202,0.697-0.202h2.847c0.307,0.001,0.536,0.072,0.68,0.212c0.114,0.11,0.174,0.268,0.175,0.459
				c0,0.057-0.006,0.117-0.018,0.178L87.606,30.85z"/>
		</g>
		<g>
			<path fill="#FFFFFF" d="M100.848,30.849h-6.061l-0.009-0.02l-4.488-10.386l0.014-0.015l7.763-8.43
				c0.479-0.525,0.763-0.79,1.014-0.946c0.272-0.166,0.507-0.227,0.898-0.229h3.912c0.183,0.001,0.298,0.061,0.362,0.112
				c0.039,0.033,0.065,0.064,0.082,0.097c0.012,0.022,0.02,0.051,0.024,0.081h0.008l-0.007,0.063
				c-0.007,0.082-0.05,0.216-0.211,0.396l-8.379,9.009L100.848,30.849z"/>
		</g>
		<g>
			<path fill="#FFFFFF" d="M40.026,30.85h-0.04l0.008-0.039l1.714-8.087h-7.93l-1.727,8.126h-4.809l0.008-0.039
				c0.163-0.768,3.985-18.804,4.009-18.904c0.141-0.594,0.377-0.797,0.566-0.909c0.205-0.119,0.49-0.174,0.899-0.174h2.601
				c0.134,0.002,0.354,0.058,0.522,0.178c0.09,0.063,0.16,0.138,0.208,0.222c0.055,0.096,0.081,0.205,0.082,0.331
				c0,0.054-0.006,0.113-0.016,0.175c-0.02,0.116-1.341,6.278-1.471,6.887h7.93c0.645-3.044,1.414-6.667,1.424-6.711
				c0.141-0.594,0.377-0.797,0.566-0.909c0.205-0.119,0.49-0.174,0.899-0.174h2.601c0.134,0.002,0.354,0.058,0.522,0.178
				c0.09,0.063,0.16,0.138,0.208,0.222c0.055,0.096,0.081,0.205,0.082,0.331c0,0.054-0.006,0.113-0.016,0.175
				c-0.021,0.119-3.899,18.319-4.063,19.093l-0.006,0.025L40.026,30.85z"/>
		</g>
		<g>
			<path fill="#FFFFFF" d="M115.034,14.739c0.37,0.095,0.665,0.28,0.823,0.588l0,0c0.105,0.203,0.149,0.445,0.149,0.727l0,0
				c0,0.292-0.046,0.63-0.132,1.034l0,0c-0.112,0.524-0.221,0.955-0.388,1.326l0,0c-0.166,0.371-0.393,0.682-0.723,0.94l0,0
				c-0.66,0.516-1.688,0.834-3.507,1.242l0,0c-2.409,0.535-4.071,0.981-5.242,1.562l0,0c-1.17,0.584-1.853,1.283-2.366,2.384l0,0
				c-0.34,0.735-0.598,1.652-0.846,2.818l0,0l-0.68,3.458h15.601l0.728-3.504h-10.856c0,0,0.168-0.841,0.306-1.15l0,0
				c0.178-0.399,0.409-0.699,0.712-0.921l0,0c0.303-0.223,0.668-0.369,1.113-0.493l0,0c0.891-0.247,2.121-0.415,3.932-0.877l0,0
				c2.233-0.578,3.739-1.208,4.801-2.232l0,0c1.062-1.023,1.711-2.461,2.19-4.714l0,0c0.177-0.834,0.276-1.654,0.276-2.274l0,0
				c0-0.893-0.172-1.576-0.479-2.101l0,0c-0.308-0.526-0.753-0.903-1.333-1.182l0,0c-1.158-0.558-2.857-0.687-4.874-0.685l0,0
				c-2.567-0.001-4.587,0.266-6.089,1.187l0,0c-1.501,0.92-2.546,2.596-3.128,5.322l0,0l-0.164,0.77h4.744l0.181-0.852
				c0.185-0.817,0.358-1.373,0.665-1.768l0,0c0.31-0.398,0.754-0.587,1.363-0.664l0,0c0.409-0.053,0.901-0.065,1.516-0.065l0,0
				c0.096-0.002,0.19-0.002,0.28-0.002l0,0C114.195,14.616,114.661,14.642,115.034,14.739L115.034,14.739z"/>
		</g>
		<g>
			<path fill="#FFFFFF" d="M128.12,12.811c-0.551,0.573-5.181,5.417-7.076,7.403c-0.378,0.405-0.784,0.856-0.964,1.224
				c-0.144,0.27-0.335,1.023-0.433,1.558c-0.202,1.118-0.353,2.138-0.446,2.557c-0.024,0.108-0.035,0.208-0.035,0.299
				c0.002,0.343,0.146,0.574,0.338,0.738c0.191,0.163,0.447,0.237,0.705,0.237c0.231,0,9.19,0,9.19,0l-0.846,3.995l4.838-0.456
				l0.752-3.539h1.728l0.752-3.537h-1.729c0,0,1.726-8.074,1.781-8.374c0.594-3.268-0.762-4.224-3.817-4.224
				C132.078,10.694,130.313,10.533,128.12,12.811z M130.151,23.292h-6.943l8.26-8.56h0.503L130.151,23.292z"/>
		</g>
		<g>
			<path fill="#FFFFFF" d="M117.292,41.997L117.292,41.997c-3.123,0-6.122-0.833-8.673-2.41c-2.505-1.548-3.968-3.373-4.659-4.404
				l-0.913,2.352c-0.083,0.215-0.311,0.351-0.552,0.311c-0.241-0.042-0.414-0.246-0.416-0.485l-0.049-4.607v-0.004
				c0.002-0.13,0.054-0.252,0.146-0.343c0.096-0.094,0.221-0.146,0.354-0.146l4.688-0.002h0.004
				c0.232,0.007,0.433,0.176,0.476,0.402c0.006,0.03,0.009,0.062,0.009,0.094c0,0.203-0.128,0.39-0.319,0.463l-2.288,0.887
				c2.006,1.786,6.138,4.662,11.941,4.662c0.495,0,1-0.022,1.498-0.064c2.447-0.208,4.917-0.809,7.142-1.739
				c1.949-0.814,3.669-1.854,4.984-3.01l-2.361-0.697c-0.21-0.06-0.359-0.256-0.359-0.476c0-0.015,0.001-0.031,0.002-0.049
				c0.023-0.237,0.213-0.425,0.453-0.446l4.579-0.417c0.021-0.002,0.037-0.002,0.051-0.002c0.117,0.001,0.23,0.041,0.319,0.115
				c0.105,0.088,0.168,0.208,0.178,0.342c0.381,4.5,0.381,4.502,0.381,4.518c0,0.224-0.152,0.421-0.37,0.479
				c-0.041,0.011-0.084,0.017-0.127,0.018c-0.194-0.001-0.37-0.109-0.452-0.277l-1.105-2.118c-0.888,1.198-2.434,2.893-4.851,4.362
				c-2.454,1.492-5.195,2.375-8.145,2.626l-0.295,0.025v-0.002C118.138,41.982,117.711,41.997,117.292,41.997z"/>
		</g>
	</g>
</g>
<circle fill="#FFFFFF" cx="142.362" cy="125.644" r="14.667"/>
<path fill="#005EA8" d="M142.5,107.5c-9.66,0-17.5,7.84-17.5,17.5s7.84,17.5,17.5,17.5S160,134.66,160,125S152.16,107.5,142.5,107.5
	z M145.65,137.6h-6.3v-17.5h6.3V137.6z M142.5,118.35h-0.035c-1.995,0-3.255-1.33-3.255-3.01c0-1.785,1.295-3.045,3.29-3.045
	s3.255,1.26,3.29,3.045C145.79,116.985,144.495,118.35,142.5,118.35z"/>
</svg>
